<svg xmlns="http://www.w3.org/2000/svg" xmlns:xlink="http://www.w3.org/1999/xlink" width="2000" zoomAndPan="magnify" viewBox="0 0 1500 1499.999933" height="2000" preserveAspectRatio="xMidYMid meet" version="1.0"><defs><clipPath id="4e13fe8d1f"><path d="M 881.734375 599 L 1167 599 L 1167 852.554688 L 881.734375 852.554688 Z M 881.734375 599 " clip-rule="nonzero"/></clipPath><clipPath id="8714650cea"><path d="M 1166.226562 835.898438 L 1150.878906 767.636719 C 1148.917969 758.492188 1140.097656 748.042969 1131.28125 744.449219 L 1090.777344 727.792969 C 1081.957031 724.203125 1070.195312 715.378906 1063.992188 708.195312 L 990.175781 621.324219 C 983.96875 614.136719 971.558594 607.601562 962.410156 606.296875 L 898.71875 599.109375 C 889.574219 598.128906 881.734375 604.992188 881.734375 614.136719 L 881.734375 835.574219 C 881.734375 845.042969 889.246094 852.554688 898.71875 852.554688 L 967.3125 852.554688 C 967.3125 823.8125 990.5 800.625 1019.246094 800.625 C 1047.988281 800.625 1071.175781 823.8125 1071.175781 852.554688 L 1152.835938 852.554688 C 1162.308594 852.554688 1168.1875 845.042969 1166.226562 835.898438 Z M 1018.265625 724.855469 L 924.523438 724.855469 C 918.316406 724.855469 913.089844 719.628906 913.089844 713.421875 L 913.089844 635.6875 C 913.089844 629.488281 917.988281 624.914062 924.195312 625.894531 L 955.550781 630.46875 C 961.757812 631.445312 969.921875 636.015625 973.839844 640.914062 L 1021.855469 700.03125 C 1025.777344 704.933594 1029.042969 712.441406 1029.042969 717.015625 C 1029.695312 721.261719 1024.472656 724.855469 1018.265625 724.855469 Z M 1018.265625 724.855469 " clip-rule="nonzero"/></clipPath><linearGradient x1="162.799828" gradientTransform="matrix(3.266297, 0, 0, 3.266036, 349.980148, 255.524629)" y1="144.003998" x2="250.321897" gradientUnits="userSpaceOnUse" y2="144.003998" id="4481a8d351"><stop stop-opacity="1" stop-color="rgb(94.898987%, 22.349548%, 10.198975%)" offset="0"/><stop stop-opacity="1" stop-color="rgb(94.898987%, 22.538757%, 10.198975%)" offset="0.015625"/><stop stop-opacity="1" stop-color="rgb(94.898987%, 22.93396%, 10.188293%)" offset="0.0195313"/><stop stop-opacity="1" stop-color="rgb(94.898987%, 23.139954%, 10.179138%)" offset="0.0234375"/><stop stop-opacity="1" stop-color="rgb(94.898987%, 23.143005%, 9.988403%)" offset="0.03125"/><stop stop-opacity="1" stop-color="rgb(94.898987%, 23.338318%, 9.799194%)" offset="0.0390625"/><stop stop-opacity="1" stop-color="rgb(95.088196%, 23.718262%, 9.799194%)" offset="0.046875"/><stop stop-opacity="1" stop-color="rgb(95.283508%, 24.093628%, 9.799194%)" offset="0.0625"/><stop stop-opacity="1" stop-color="rgb(95.289612%, 24.493408%, 9.603882%)" offset="0.0664062"/><stop stop-opacity="1" stop-color="rgb(95.289612%, 24.708557%, 9.408569%)" offset="0.0703125"/><stop stop-opacity="1" stop-color="rgb(95.289612%, 24.708557%, 9.408569%)" offset="0.078125"/><stop stop-opacity="1" stop-color="rgb(95.289612%, 24.90387%, 9.408569%)" offset="0.09375"/><stop stop-opacity="1" stop-color="rgb(95.289612%, 25.27771%, 9.408569%)" offset="0.101563"/><stop stop-opacity="1" stop-color="rgb(95.289612%, 25.668335%, 9.405518%)" offset="0.105469"/><stop stop-opacity="1" stop-color="rgb(95.289612%, 25.878906%, 9.402466%)" offset="0.109375"/><stop stop-opacity="1" stop-color="rgb(95.483398%, 26.068115%, 9.210205%)" offset="0.125"/><stop stop-opacity="1" stop-color="rgb(95.683289%, 26.451111%, 9.01947%)" offset="0.132812"/><stop stop-opacity="1" stop-color="rgb(95.689392%, 26.657104%, 9.01947%)" offset="0.140625"/><stop stop-opacity="1" stop-color="rgb(95.689392%, 26.867676%, 9.016418%)" offset="0.144531"/><stop stop-opacity="1" stop-color="rgb(95.689392%, 27.06604%, 9.013367%)" offset="0.148438"/><stop stop-opacity="1" stop-color="rgb(95.689392%, 27.255249%, 8.822632%)" offset="0.15625"/><stop stop-opacity="1" stop-color="rgb(95.689392%, 27.630615%, 8.630371%)" offset="0.171875"/><stop stop-opacity="1" stop-color="rgb(95.689392%, 28.010559%, 8.628845%)" offset="0.179688"/><stop stop-opacity="1" stop-color="rgb(95.689392%, 28.222656%, 8.628845%)" offset="0.1875"/><stop stop-opacity="1" stop-color="rgb(95.881653%, 28.431702%, 8.628845%)" offset="0.195312"/><stop stop-opacity="1" stop-color="rgb(96.075439%, 28.814697%, 8.441162%)" offset="0.203125"/><stop stop-opacity="1" stop-color="rgb(96.078491%, 29.190063%, 8.24585%)" offset="0.21875"/><stop stop-opacity="1" stop-color="rgb(96.078491%, 29.391479%, 8.239746%)" offset="0.226562"/><stop stop-opacity="1" stop-color="rgb(96.078491%, 29.600525%, 8.239746%)" offset="0.234375"/><stop stop-opacity="1" stop-color="rgb(96.078491%, 29.988098%, 8.047485%)" offset="0.242188"/><stop stop-opacity="1" stop-color="rgb(96.078491%, 30.19104%, 7.847595%)" offset="0.25"/><stop stop-opacity="1" stop-color="rgb(96.078491%, 30.375671%, 7.839966%)" offset="0.257812"/><stop stop-opacity="1" stop-color="rgb(96.078491%, 30.743408%, 7.839966%)" offset="0.265625"/><stop stop-opacity="1" stop-color="rgb(96.270752%, 30.957031%, 7.839966%)" offset="0.273438"/><stop stop-opacity="1" stop-color="rgb(96.466064%, 31.166077%, 7.839966%)" offset="0.28125"/><stop stop-opacity="1" stop-color="rgb(96.469116%, 31.542969%, 7.65686%)" offset="0.289062"/><stop stop-opacity="1" stop-color="rgb(96.469116%, 31.745911%, 7.461548%)" offset="0.296875"/><stop stop-opacity="1" stop-color="rgb(96.469116%, 31.93512%, 7.449341%)" offset="0.304688"/><stop stop-opacity="1" stop-color="rgb(96.469116%, 32.302856%, 7.449341%)" offset="0.3125"/><stop stop-opacity="1" stop-color="rgb(96.469116%, 32.521057%, 7.449341%)" offset="0.320312"/><stop stop-opacity="1" stop-color="rgb(96.469116%, 32.730103%, 7.267761%)" offset="0.328125"/><stop stop-opacity="1" stop-color="rgb(96.469116%, 33.097839%, 7.072449%)" offset="0.34375"/><stop stop-opacity="1" stop-color="rgb(96.635437%, 33.476257%, 7.058716%)" offset="0.351562"/><stop stop-opacity="1" stop-color="rgb(96.83075%, 33.700562%, 7.058716%)" offset="0.359375"/><stop stop-opacity="1" stop-color="rgb(96.859741%, 33.911133%, 7.058716%)" offset="0.367188"/><stop stop-opacity="1" stop-color="rgb(96.859741%, 34.281921%, 6.881714%)" offset="0.375"/><stop stop-opacity="1" stop-color="rgb(96.859741%, 34.657288%, 6.687927%)" offset="0.390625"/><stop stop-opacity="1" stop-color="rgb(96.859741%, 35.055542%, 6.669617%)" offset="0.394531"/><stop stop-opacity="1" stop-color="rgb(96.859741%, 35.269165%, 6.669617%)" offset="0.398438"/><stop stop-opacity="1" stop-color="rgb(96.859741%, 35.27832%, 6.669617%)" offset="0.40625"/><stop stop-opacity="1" stop-color="rgb(96.859741%, 35.469055%, 6.669617%)" offset="0.414062"/><stop stop-opacity="1" stop-color="rgb(96.859741%, 35.839844%, 6.494141%)" offset="0.421875"/><stop stop-opacity="1" stop-color="rgb(97.053528%, 36.21521%, 6.29425%)" offset="0.4375"/><stop stop-opacity="1" stop-color="rgb(97.24884%, 36.434937%, 6.269836%)" offset="0.445312"/><stop stop-opacity="1" stop-color="rgb(97.24884%, 36.643982%, 6.269836%)" offset="0.453125"/><stop stop-opacity="1" stop-color="rgb(97.24884%, 37.010193%, 6.098938%)" offset="0.460938"/><stop stop-opacity="1" stop-color="rgb(97.24884%, 37.225342%, 5.903625%)" offset="0.46875"/><stop stop-opacity="1" stop-color="rgb(97.24884%, 37.414551%, 5.879211%)" offset="0.476562"/><stop stop-opacity="1" stop-color="rgb(97.24884%, 37.791443%, 5.879211%)" offset="0.480469"/><stop stop-opacity="1" stop-color="rgb(97.24884%, 38.005066%, 5.879211%)" offset="0.484375"/><stop stop-opacity="1" stop-color="rgb(97.24884%, 38.192749%, 5.879211%)" offset="0.5"/><stop stop-opacity="1" stop-color="rgb(97.418213%, 38.569641%, 5.712891%)" offset="0.507812"/><stop stop-opacity="1" stop-color="rgb(97.618103%, 38.789368%, 5.517578%)" offset="0.515625"/><stop stop-opacity="1" stop-color="rgb(97.648621%, 39.001465%, 5.488586%)" offset="0.523438"/><stop stop-opacity="1" stop-color="rgb(97.648621%, 39.375305%, 5.488586%)" offset="0.53125"/><stop stop-opacity="1" stop-color="rgb(97.648621%, 39.753723%, 5.323792%)" offset="0.546875"/><stop stop-opacity="1" stop-color="rgb(97.648621%, 40.122986%, 5.128479%)" offset="0.5625"/><stop stop-opacity="1" stop-color="rgb(97.648621%, 40.519714%, 5.099487%)" offset="0.566406"/><stop stop-opacity="1" stop-color="rgb(97.648621%, 40.731812%, 5.099487%)" offset="0.570312"/><stop stop-opacity="1" stop-color="rgb(97.817993%, 40.7547%, 5.099487%)" offset="0.578125"/><stop stop-opacity="1" stop-color="rgb(98.013306%, 40.94696%, 5.099487%)" offset="0.585938"/><stop stop-opacity="1" stop-color="rgb(98.039246%, 41.307068%, 4.93927%)" offset="0.59375"/><stop stop-opacity="1" stop-color="rgb(98.039246%, 41.532898%, 4.743958%)" offset="0.601562"/><stop stop-opacity="1" stop-color="rgb(98.039246%, 41.740417%, 4.708862%)" offset="0.609375"/><stop stop-opacity="1" stop-color="rgb(98.039246%, 42.103577%, 4.708862%)" offset="0.617188"/><stop stop-opacity="1" stop-color="rgb(98.039246%, 42.323303%, 4.708862%)" offset="0.625"/><stop stop-opacity="1" stop-color="rgb(98.039246%, 42.512512%, 4.545593%)" offset="0.632813"/><stop stop-opacity="1" stop-color="rgb(98.039246%, 42.866516%, 4.345703%)" offset="0.640625"/><stop stop-opacity="1" stop-color="rgb(98.039246%, 43.09845%, 4.309082%)" offset="0.648438"/><stop stop-opacity="1" stop-color="rgb(98.207092%, 43.307495%, 4.309082%)" offset="0.65625"/><stop stop-opacity="1" stop-color="rgb(98.402405%, 43.661499%, 4.309082%)" offset="0.671875"/><stop stop-opacity="1" stop-color="rgb(98.429871%, 44.035339%, 4.154968%)" offset="0.679688"/><stop stop-opacity="1" stop-color="rgb(98.429871%, 44.267273%, 3.961182%)" offset="0.6875"/><stop stop-opacity="1" stop-color="rgb(98.429871%, 44.477844%, 3.919983%)" offset="0.695312"/><stop stop-opacity="1" stop-color="rgb(98.429871%, 44.841003%, 3.919983%)" offset="0.703125"/><stop stop-opacity="1" stop-color="rgb(98.429871%, 45.220947%, 3.765869%)" offset="0.71875"/><stop stop-opacity="1" stop-color="rgb(98.429871%, 45.594788%, 3.570557%)" offset="0.726563"/><stop stop-opacity="1" stop-color="rgb(98.59314%, 45.831299%, 3.529358%)" offset="0.734375"/><stop stop-opacity="1" stop-color="rgb(98.786926%, 46.04187%, 3.529358%)" offset="0.742188"/><stop stop-opacity="1" stop-color="rgb(98.81897%, 46.398926%, 3.529358%)" offset="0.75"/><stop stop-opacity="1" stop-color="rgb(98.81897%, 46.77887%, 3.381348%)" offset="0.765625"/><stop stop-opacity="1" stop-color="rgb(98.81897%, 47.012329%, 3.186035%)" offset="0.773437"/><stop stop-opacity="1" stop-color="rgb(98.81897%, 47.221375%, 3.138733%)" offset="0.78125"/><stop stop-opacity="1" stop-color="rgb(98.81897%, 47.573853%, 3.138733%)" offset="0.789062"/><stop stop-opacity="1" stop-color="rgb(98.81897%, 47.801208%, 3.138733%)" offset="0.796875"/><stop stop-opacity="1" stop-color="rgb(98.81897%, 47.990417%, 2.990723%)" offset="0.804688"/><stop stop-opacity="1" stop-color="rgb(98.965454%, 48.332214%, 2.796936%)" offset="0.8125"/><stop stop-opacity="1" stop-color="rgb(99.165344%, 48.576355%, 2.749634%)" offset="0.820312"/><stop stop-opacity="1" stop-color="rgb(99.21875%, 48.7854%, 2.749634%)" offset="0.828125"/><stop stop-opacity="1" stop-color="rgb(99.21875%, 49.133301%, 2.749634%)" offset="0.835938"/><stop stop-opacity="1" stop-color="rgb(99.21875%, 49.36676%, 2.749634%)" offset="0.84375"/><stop stop-opacity="1" stop-color="rgb(99.21875%, 49.551392%, 2.603149%)" offset="0.851562"/><stop stop-opacity="1" stop-color="rgb(99.21875%, 49.906921%, 2.403259%)" offset="0.855469"/><stop stop-opacity="1" stop-color="rgb(99.21875%, 50.120544%, 2.349854%)" offset="0.859375"/><stop stop-opacity="1" stop-color="rgb(99.21875%, 50.311279%, 2.349854%)" offset="0.875"/><stop stop-opacity="1" stop-color="rgb(99.360657%, 50.686646%, 2.207947%)" offset="0.890625"/><stop stop-opacity="1" stop-color="rgb(99.555969%, 51.081848%, 2.012634%)" offset="0.894531"/><stop stop-opacity="1" stop-color="rgb(99.609375%, 51.292419%, 1.959229%)" offset="0.898438"/><stop stop-opacity="1" stop-color="rgb(99.609375%, 51.330566%, 1.959229%)" offset="0.90625"/><stop stop-opacity="1" stop-color="rgb(99.609375%, 51.519775%, 1.959229%)" offset="0.914062"/><stop stop-opacity="1" stop-color="rgb(99.609375%, 51.86615%, 1.959229%)" offset="0.921875"/><stop stop-opacity="1" stop-color="rgb(99.609375%, 52.246094%, 1.821899%)" offset="0.9375"/><stop stop-opacity="1" stop-color="rgb(99.609375%, 52.641296%, 1.626587%)" offset="0.941406"/><stop stop-opacity="1" stop-color="rgb(99.609375%, 52.850342%, 1.568604%)" offset="0.945313"/><stop stop-opacity="1" stop-color="rgb(99.609375%, 52.894592%, 1.568604%)" offset="0.953125"/><stop stop-opacity="1" stop-color="rgb(99.754333%, 53.085327%, 1.568604%)" offset="0.960937"/><stop stop-opacity="1" stop-color="rgb(99.949646%, 53.424072%, 1.568604%)" offset="0.96875"/><stop stop-opacity="1" stop-color="rgb(100%, 53.672791%, 1.568604%)" offset="0.976562"/><stop stop-opacity="1" stop-color="rgb(100%, 53.878784%, 1.419067%)" offset="0.984375"/><stop stop-opacity="1" stop-color="rgb(100%, 54.148865%, 1.223755%)" offset="0.992188"/><stop stop-opacity="1" stop-color="rgb(100%, 54.364014%, 1.179504%)" offset="1"/></linearGradient><clipPath id="ff08bf2922"><path d="M 349.980469 475.003906 L 865.402344 475.003906 L 865.402344 853 L 349.980469 853 Z M 349.980469 475.003906 " clip-rule="nonzero"/></clipPath><clipPath id="443348b106"><path d="M 865.402344 570.367188 C 865.402344 594.539062 865.402344 626.222656 865.402344 626.222656 C 865.402344 626.222656 439.804688 634.058594 349.980469 475.003906 C 440.78125 565.796875 641.984375 570.367188 865.402344 570.367188 Z M 865.402344 701.339844 C 865.402344 701.339844 865.402344 669.65625 865.402344 645.488281 C 642.3125 645.488281 440.78125 640.914062 349.980469 550.121094 C 439.804688 709.503906 865.402344 701.339844 865.402344 701.339844 Z M 865.402344 777.109375 C 865.402344 777.109375 865.402344 745.429688 865.402344 721.261719 C 642.3125 721.261719 440.78125 716.6875 349.980469 625.894531 C 439.804688 785.277344 865.402344 777.109375 865.402344 777.109375 Z M 865.402344 852.554688 C 865.402344 852.554688 865.402344 820.875 865.402344 796.707031 C 642.3125 796.707031 440.78125 792.132812 349.980469 701.339844 C 439.804688 860.722656 865.402344 852.554688 865.402344 852.554688 Z M 865.402344 852.554688 " clip-rule="nonzero"/></clipPath><linearGradient x1="0.000529596" gradientTransform="matrix(3.266297, 0, 0, 3.266036, 349.980148, 255.524629)" y1="125" x2="157.800218" gradientUnits="userSpaceOnUse" y2="125" id="72631cabb8"><stop stop-opacity="1" stop-color="rgb(94.898987%, 22.349548%, 10.198975%)" offset="0"/><stop stop-opacity="1" stop-color="rgb(94.898987%, 22.540283%, 10.198975%)" offset="0.015625"/><stop stop-opacity="1" stop-color="rgb(94.898987%, 22.935486%, 10.188293%)" offset="0.0195313"/><stop stop-opacity="1" stop-color="rgb(94.898987%, 23.139954%, 10.177612%)" offset="0.0234375"/><stop stop-opacity="1" stop-color="rgb(94.898987%, 23.146057%, 9.988403%)" offset="0.03125"/><stop stop-opacity="1" stop-color="rgb(94.900513%, 23.34137%, 9.799194%)" offset="0.0390625"/><stop stop-opacity="1" stop-color="rgb(95.092773%, 23.722839%, 9.799194%)" offset="0.046875"/><stop stop-opacity="1" stop-color="rgb(95.28656%, 24.098206%, 9.799194%)" offset="0.0625"/><stop stop-opacity="1" stop-color="rgb(95.289612%, 24.304199%, 9.603882%)" offset="0.0703125"/><stop stop-opacity="1" stop-color="rgb(95.289612%, 24.520874%, 9.408569%)" offset="0.078125"/><stop stop-opacity="1" stop-color="rgb(95.289612%, 24.906921%, 9.408569%)" offset="0.09375"/><stop stop-opacity="1" stop-color="rgb(95.289612%, 25.283813%, 9.408569%)" offset="0.101562"/><stop stop-opacity="1" stop-color="rgb(95.289612%, 25.672913%, 9.399414%)" offset="0.105469"/><stop stop-opacity="1" stop-color="rgb(95.289612%, 25.878906%, 9.390259%)" offset="0.109375"/><stop stop-opacity="1" stop-color="rgb(95.294189%, 25.883484%, 9.204102%)" offset="0.117188"/><stop stop-opacity="1" stop-color="rgb(95.49408%, 26.078796%, 9.01947%)" offset="0.125"/><stop stop-opacity="1" stop-color="rgb(95.689392%, 26.464844%, 9.01947%)" offset="0.132812"/><stop stop-opacity="1" stop-color="rgb(95.689392%, 26.664734%, 9.01947%)" offset="0.140625"/><stop stop-opacity="1" stop-color="rgb(95.689392%, 26.864624%, 9.01947%)" offset="0.148437"/><stop stop-opacity="1" stop-color="rgb(95.689392%, 27.06604%, 9.013367%)" offset="0.15625"/><stop stop-opacity="1" stop-color="rgb(95.689392%, 27.261353%, 8.818054%)" offset="0.164062"/><stop stop-opacity="1" stop-color="rgb(95.689392%, 27.642822%, 8.628845%)" offset="0.171875"/><stop stop-opacity="1" stop-color="rgb(95.689392%, 28.024292%, 8.628845%)" offset="0.1875"/><stop stop-opacity="1" stop-color="rgb(95.697021%, 28.421021%, 8.621216%)" offset="0.191406"/><stop stop-opacity="1" stop-color="rgb(95.704651%, 28.62854%, 8.613586%)" offset="0.195312"/><stop stop-opacity="1" stop-color="rgb(95.890808%, 28.631592%, 8.425903%)" offset="0.203125"/><stop stop-opacity="1" stop-color="rgb(96.078491%, 28.825378%, 8.239746%)" offset="0.210937"/><stop stop-opacity="1" stop-color="rgb(96.078491%, 29.206848%, 8.239746%)" offset="0.21875"/><stop stop-opacity="1" stop-color="rgb(96.078491%, 29.403687%, 8.239746%)" offset="0.226562"/><stop stop-opacity="1" stop-color="rgb(96.078491%, 29.614258%, 8.239746%)" offset="0.230469"/><stop stop-opacity="1" stop-color="rgb(96.078491%, 29.818726%, 8.239746%)" offset="0.234375"/><stop stop-opacity="1" stop-color="rgb(96.078491%, 30.007935%, 8.233643%)" offset="0.242187"/><stop stop-opacity="1" stop-color="rgb(96.078491%, 30.198669%, 8.033752%)" offset="0.25"/><stop stop-opacity="1" stop-color="rgb(96.078491%, 30.393982%, 7.839966%)" offset="0.265625"/><stop stop-opacity="1" stop-color="rgb(96.089172%, 30.795288%, 7.839966%)" offset="0.269531"/><stop stop-opacity="1" stop-color="rgb(96.101379%, 31.001282%, 7.839966%)" offset="0.273437"/><stop stop-opacity="1" stop-color="rgb(96.284485%, 31.184387%, 7.832336%)" offset="0.28125"/><stop stop-opacity="1" stop-color="rgb(96.469116%, 31.561279%, 7.637024%)" offset="0.296875"/><stop stop-opacity="1" stop-color="rgb(96.469116%, 31.948853%, 7.449341%)" offset="0.304687"/><stop stop-opacity="1" stop-color="rgb(96.469116%, 32.151794%, 7.449341%)" offset="0.3125"/><stop stop-opacity="1" stop-color="rgb(96.469116%, 32.362366%, 7.449341%)" offset="0.316406"/><stop stop-opacity="1" stop-color="rgb(96.469116%, 32.565308%, 7.449341%)" offset="0.320312"/><stop stop-opacity="1" stop-color="rgb(96.469116%, 32.751465%, 7.446289%)" offset="0.328125"/><stop stop-opacity="1" stop-color="rgb(96.469116%, 33.128357%, 7.250977%)" offset="0.34375"/><stop stop-opacity="1" stop-color="rgb(96.653748%, 33.512878%, 7.058716%)" offset="0.351562"/><stop stop-opacity="1" stop-color="rgb(96.84906%, 33.728027%, 7.058716%)" offset="0.359375"/><stop stop-opacity="1" stop-color="rgb(96.859741%, 33.932495%, 6.863403%)" offset="0.375"/><stop stop-opacity="1" stop-color="rgb(96.859741%, 34.309387%, 6.669617%)" offset="0.382812"/><stop stop-opacity="1" stop-color="rgb(96.859741%, 34.690857%, 6.669617%)" offset="0.390625"/><stop stop-opacity="1" stop-color="rgb(96.859741%, 34.901428%, 6.669617%)" offset="0.398438"/><stop stop-opacity="1" stop-color="rgb(96.859741%, 35.110474%, 6.669617%)" offset="0.40625"/><stop stop-opacity="1" stop-color="rgb(96.859741%, 35.494995%, 6.668091%)" offset="0.414062"/><stop stop-opacity="1" stop-color="rgb(96.859741%, 35.688782%, 6.471252%)" offset="0.421875"/><stop stop-opacity="1" stop-color="rgb(97.045898%, 35.876465%, 6.272888%)" offset="0.429687"/><stop stop-opacity="1" stop-color="rgb(97.241211%, 36.254883%, 6.269836%)" offset="0.4375"/><stop stop-opacity="1" stop-color="rgb(97.24884%, 36.465454%, 6.269836%)" offset="0.445312"/><stop stop-opacity="1" stop-color="rgb(97.24884%, 36.671448%, 6.266785%)" offset="0.453125"/><stop stop-opacity="1" stop-color="rgb(97.24884%, 37.04834%, 6.071472%)" offset="0.46875"/><stop stop-opacity="1" stop-color="rgb(97.24884%, 37.432861%, 5.879211%)" offset="0.476562"/><stop stop-opacity="1" stop-color="rgb(97.24884%, 37.64801%, 5.879211%)" offset="0.484375"/><stop stop-opacity="1" stop-color="rgb(97.24884%, 37.857056%, 5.879211%)" offset="0.492188"/><stop stop-opacity="1" stop-color="rgb(97.24884%, 38.238525%, 5.879211%)" offset="0.5"/><stop stop-opacity="1" stop-color="rgb(97.444153%, 38.42926%, 5.688477%)" offset="0.507813"/><stop stop-opacity="1" stop-color="rgb(97.644043%, 38.615417%, 5.493164%)" offset="0.515625"/><stop stop-opacity="1" stop-color="rgb(97.648621%, 39.01062%, 5.488586%)" offset="0.519531"/><stop stop-opacity="1" stop-color="rgb(97.648621%, 39.219666%, 5.488586%)" offset="0.523438"/><stop stop-opacity="1" stop-color="rgb(97.648621%, 39.225769%, 5.488586%)" offset="0.53125"/><stop stop-opacity="1" stop-color="rgb(97.648621%, 39.421082%, 5.488586%)" offset="0.539063"/><stop stop-opacity="1" stop-color="rgb(97.648621%, 39.802551%, 5.488586%)" offset="0.546875"/><stop stop-opacity="1" stop-color="rgb(97.648621%, 40.179443%, 5.293274%)" offset="0.5625"/><stop stop-opacity="1" stop-color="rgb(97.648621%, 40.385437%, 5.099487%)" offset="0.570312"/><stop stop-opacity="1" stop-color="rgb(97.651672%, 40.594482%, 5.099487%)" offset="0.578125"/><stop stop-opacity="1" stop-color="rgb(97.845459%, 40.98053%, 5.099487%)" offset="0.585938"/><stop stop-opacity="1" stop-color="rgb(98.03772%, 41.177368%, 4.910278%)" offset="0.59375"/><stop stop-opacity="1" stop-color="rgb(98.039246%, 41.363525%, 4.714966%)" offset="0.601562"/><stop stop-opacity="1" stop-color="rgb(98.039246%, 41.752625%, 4.708862%)" offset="0.605469"/><stop stop-opacity="1" stop-color="rgb(98.039246%, 41.958618%, 4.708862%)" offset="0.609375"/><stop stop-opacity="1" stop-color="rgb(98.039246%, 42.153931%, 4.708862%)" offset="0.625"/><stop stop-opacity="1" stop-color="rgb(98.039246%, 42.544556%, 4.708862%)" offset="0.632813"/><stop stop-opacity="1" stop-color="rgb(98.039246%, 42.744446%, 4.518127%)" offset="0.640625"/><stop stop-opacity="1" stop-color="rgb(98.039246%, 42.955017%, 4.318237%)" offset="0.644531"/><stop stop-opacity="1" stop-color="rgb(98.039246%, 43.161011%, 4.309082%)" offset="0.648438"/><stop stop-opacity="1" stop-color="rgb(98.045349%, 43.344116%, 4.309082%)" offset="0.65625"/><stop stop-opacity="1" stop-color="rgb(98.240662%, 43.721008%, 4.309082%)" offset="0.671875"/><stop stop-opacity="1" stop-color="rgb(98.429871%, 44.099426%, 4.11377%)" offset="0.6875"/><stop stop-opacity="1" stop-color="rgb(98.429871%, 44.497681%, 3.919983%)" offset="0.691406"/><stop stop-opacity="1" stop-color="rgb(98.429871%, 44.709778%, 3.919983%)" offset="0.695312"/><stop stop-opacity="1" stop-color="rgb(98.429871%, 44.71283%, 3.919983%)" offset="0.703125"/><stop stop-opacity="1" stop-color="rgb(98.429871%, 44.90509%, 3.919983%)" offset="0.710938"/><stop stop-opacity="1" stop-color="rgb(98.429871%, 45.28656%, 3.919983%)" offset="0.71875"/><stop stop-opacity="1" stop-color="rgb(98.429871%, 45.483398%, 3.735352%)" offset="0.726563"/><stop stop-opacity="1" stop-color="rgb(98.439026%, 45.692444%, 3.540039%)" offset="0.730469"/><stop stop-opacity="1" stop-color="rgb(98.448181%, 45.896912%, 3.529358%)" offset="0.734375"/><stop stop-opacity="1" stop-color="rgb(98.632812%, 46.083069%, 3.529358%)" offset="0.75"/><stop stop-opacity="1" stop-color="rgb(98.81897%, 46.464539%, 3.529358%)" offset="0.757812"/><stop stop-opacity="1" stop-color="rgb(98.81897%, 46.664429%, 3.343201%)" offset="0.765625"/><stop stop-opacity="1" stop-color="rgb(98.81897%, 46.875%, 3.147888%)" offset="0.769531"/><stop stop-opacity="1" stop-color="rgb(98.81897%, 47.080994%, 3.138733%)" offset="0.773438"/><stop stop-opacity="1" stop-color="rgb(98.81897%, 47.264099%, 3.138733%)" offset="0.78125"/><stop stop-opacity="1" stop-color="rgb(98.81897%, 47.640991%, 3.138733%)" offset="0.796875"/><stop stop-opacity="1" stop-color="rgb(98.81897%, 48.028564%, 3.138733%)" offset="0.804688"/><stop stop-opacity="1" stop-color="rgb(99.006653%, 48.231506%, 2.955627%)" offset="0.8125"/><stop stop-opacity="1" stop-color="rgb(99.206543%, 48.442078%, 2.761841%)" offset="0.816406"/><stop stop-opacity="1" stop-color="rgb(99.21875%, 48.64502%, 2.749634%)" offset="0.820313"/><stop stop-opacity="1" stop-color="rgb(99.21875%, 48.831177%, 2.749634%)" offset="0.828125"/><stop stop-opacity="1" stop-color="rgb(99.21875%, 49.208069%, 2.749634%)" offset="0.84375"/><stop stop-opacity="1" stop-color="rgb(99.21875%, 49.588013%, 2.749634%)" offset="0.851562"/><stop stop-opacity="1" stop-color="rgb(99.21875%, 49.798584%, 2.549744%)" offset="0.855469"/><stop stop-opacity="1" stop-color="rgb(99.21875%, 49.81842%, 2.349854%)" offset="0.859375"/><stop stop-opacity="1" stop-color="rgb(99.21875%, 50.009155%, 2.349854%)" offset="0.875"/><stop stop-opacity="1" stop-color="rgb(99.21875%, 50.389099%, 2.349854%)" offset="0.882812"/><stop stop-opacity="1" stop-color="rgb(99.404907%, 50.770569%, 2.349854%)" offset="0.890625"/><stop stop-opacity="1" stop-color="rgb(99.60022%, 50.98114%, 2.154541%)" offset="0.898438"/><stop stop-opacity="1" stop-color="rgb(99.609375%, 51.190186%, 1.959229%)" offset="0.90625"/><stop stop-opacity="1" stop-color="rgb(99.609375%, 51.570129%, 1.959229%)" offset="0.921875"/><stop stop-opacity="1" stop-color="rgb(99.609375%, 51.951599%, 1.959229%)" offset="0.929688"/><stop stop-opacity="1" stop-color="rgb(99.609375%, 52.334595%, 1.959229%)" offset="0.9375"/><stop stop-opacity="1" stop-color="rgb(99.609375%, 52.545166%, 1.763916%)" offset="0.945312"/><stop stop-opacity="1" stop-color="rgb(99.609375%, 52.75116%, 1.568604%)" offset="0.953125"/><stop stop-opacity="1" stop-color="rgb(99.798584%, 53.128052%, 1.568604%)" offset="0.96875"/><stop stop-opacity="1" stop-color="rgb(99.993896%, 53.512573%, 1.568604%)" offset="0.976562"/><stop stop-opacity="1" stop-color="rgb(100%, 53.727722%, 1.373291%)" offset="0.984375"/><stop stop-opacity="1" stop-color="rgb(100%, 53.938293%, 1.179504%)" offset="0.992188"/><stop stop-opacity="1" stop-color="rgb(100%, 54.318237%, 1.179504%)" offset="1"/></linearGradient></defs><g clip-path="url(#4e13fe8d1f)"><g clip-path="url(#8714650cea)"><path fill="url(#4481a8d351)" d="M 881.734375 598.425781 L 881.734375 852.554688 L 1167.605469 852.554688 L 1167.605469 598.425781 Z M 881.734375 598.425781 " fill-rule="nonzero"/></g></g><g clip-path="url(#ff08bf2922)"><g clip-path="url(#443348b106)"><path fill="url(#72631cabb8)" d="M 349.980469 475.003906 L 349.980469 853.023438 L 865.402344 853.023438 L 865.402344 475.003906 Z M 349.980469 475.003906 " fill-rule="nonzero"/></g></g><path fill="#000000" d="M 510.378906 923.804688 L 510.378906 1024.730469 L 485.179688 1024.730469 L 485.179688 923.804688 L 468.53125 923.804688 L 468.53125 1024.730469 L 443.328125 1024.730469 L 443.328125 923.804688 C 443.328125 920.476562 444.011719 917.269531 445.378906 914.175781 C 446.730469 910.96875 448.519531 908.320312 450.75 906.222656 C 452.839844 903.992188 455.492188 902.203125 458.703125 900.851562 C 462.03125 899.488281 465.308594 898.800781 468.53125 898.800781 L 485.179688 898.800781 C 488.402344 898.800781 491.671875 899.488281 495.003906 900.851562 C 498.210938 902.082031 500.933594 903.875 503.160156 906.222656 C 505.492188 908.558594 507.28125 911.207031 508.53125 914.175781 C 509.761719 917.015625 510.378906 920.222656 510.378906 923.804688 Z M 510.378906 923.804688 " fill-opacity="1" fill-rule="nonzero"/><path fill="#000000" d="M 592.574219 999.726562 C 592.574219 1003.308594 591.957031 1006.519531 590.722656 1009.355469 C 589.492188 1012.328125 587.703125 1014.984375 585.355469 1017.332031 C 583.136719 1019.546875 580.425781 1021.339844 577.21875 1022.699219 C 573.878906 1024.054688 570.601562 1024.730469 567.394531 1024.730469 L 550.167969 1024.730469 C 546.835938 1024.730469 543.628906 1024.054688 540.539062 1022.699219 C 537.328125 1021.339844 534.679688 1019.546875 532.585938 1017.332031 C 530.355469 1015.222656 528.566406 1012.566406 527.214844 1009.355469 C 525.847656 1006.28125 525.164062 1003.070312 525.164062 999.726562 L 525.164062 923.984375 C 525.164062 920.777344 525.847656 917.507812 527.214844 914.175781 C 528.566406 910.96875 530.355469 908.25 532.585938 906.023438 C 534.929688 903.675781 537.582031 901.886719 540.539062 900.652344 C 543.375 899.417969 546.585938 898.800781 550.167969 898.800781 L 567.394531 898.800781 C 570.972656 898.800781 574.246094 899.417969 577.21875 900.652344 C 578.820312 901.277344 580.265625 902.054688 581.554688 902.980469 C 582.851562 903.910156 584.121094 904.921875 585.355469 906.023438 C 586.46875 907.253906 587.488281 908.523438 588.417969 909.820312 C 589.34375 911.125 590.113281 912.578125 590.722656 914.175781 C 591.957031 917.136719 592.574219 920.402344 592.574219 923.984375 Z M 550.367188 999.726562 L 567.394531 999.726562 L 567.394531 923.984375 L 550.367188 923.984375 Z M 550.367188 999.726562 " fill-opacity="1" fill-rule="nonzero"/><path fill="#000000" d="M 648.304688 898.800781 L 673.488281 898.800781 L 673.488281 923.984375 C 673.488281 926.09375 673.453125 928.632812 673.386719 931.601562 C 673.332031 934.558594 673.238281 937.886719 673.109375 941.585938 C 672.992188 945.167969 672.710938 948.996094 672.273438 953.0625 C 671.847656 957.136719 671.324219 961.457031 670.703125 966.03125 C 669.46875 974.800781 667.429688 984.367188 664.597656 994.734375 C 662.25 1003.5 658.792969 1012.328125 654.234375 1021.207031 C 653.121094 1023.308594 651.328125 1024.480469 648.863281 1024.730469 L 631.082031 1024.730469 C 628.613281 1024.480469 626.824219 1023.308594 625.710938 1021.207031 C 621.144531 1012.328125 617.695312 1003.5 615.347656 994.734375 C 612.507812 984.367188 610.464844 974.800781 609.222656 966.03125 C 608.609375 961.457031 608.085938 957.136719 607.648438 953.0625 C 607.222656 948.996094 606.945312 945.167969 606.816406 941.585938 C 606.695312 937.886719 606.601562 934.558594 606.535156 931.601562 C 606.480469 928.632812 606.457031 926.09375 606.457031 923.984375 L 606.457031 898.800781 L 631.636719 898.800781 L 631.636719 936.039062 C 631.636719 938.375 631.726562 940.902344 631.917969 943.617188 C 632.101562 946.335938 632.320312 949.238281 632.574219 952.328125 C 632.8125 955.421875 633.175781 958.566406 633.667969 961.777344 C 634.167969 964.988281 634.667969 968.316406 635.160156 971.761719 C 635.765625 975.222656 636.472656 978.742188 637.265625 982.324219 C 638.074219 985.902344 638.976562 989.484375 639.972656 993.0625 C 640.953125 989.484375 641.871094 985.902344 642.738281 982.324219 C 643.613281 978.742188 644.292969 975.222656 644.785156 971.761719 C 645.40625 968.316406 645.929688 964.988281 646.355469 961.777344 C 646.792969 958.566406 647.132812 955.421875 647.371094 952.328125 C 647.621094 949.238281 647.839844 946.335938 648.027344 943.617188 C 648.210938 940.902344 648.304688 938.375 648.304688 936.039062 Z M 648.304688 898.800781 " fill-opacity="1" fill-rule="nonzero"/><path fill="#000000" d="M 754.40625 923.804688 L 754.40625 1024.730469 L 729.207031 1024.730469 L 729.207031 974.367188 L 712.558594 974.367188 L 712.558594 1024.730469 L 687.355469 1024.730469 L 687.355469 923.804688 C 687.355469 920.476562 688.039062 917.269531 689.40625 914.175781 C 690.757812 910.96875 692.546875 908.320312 694.773438 906.222656 C 696.867188 903.992188 699.519531 902.203125 702.730469 900.851562 C 706.058594 899.488281 709.335938 898.800781 712.558594 898.800781 L 729.207031 898.800781 C 732.429688 898.800781 735.699219 899.488281 739.03125 900.851562 C 742.238281 902.082031 744.960938 903.875 747.1875 906.222656 C 749.519531 908.558594 751.308594 911.207031 752.558594 914.175781 C 753.789062 917.015625 754.40625 920.222656 754.40625 923.804688 Z M 712.558594 949.183594 L 729.207031 949.183594 L 729.207031 923.804688 L 712.558594 923.804688 Z M 712.558594 949.183594 " fill-opacity="1" fill-rule="nonzero"/><path fill="#000000" d="M 835.488281 972.695312 C 836.601562 975.414062 837.160156 978.378906 837.160156 981.585938 L 837.160156 1024.730469 L 811.976562 1024.730469 L 811.976562 981.585938 L 805.132812 974.367188 L 794.394531 974.367188 L 794.394531 1024.730469 L 769.191406 1024.730469 L 769.191406 906.398438 C 769.191406 904.308594 769.933594 902.515625 771.421875 901.03125 C 772.902344 899.546875 774.691406 898.800781 776.789062 898.800781 L 811.042969 898.800781 C 814.621094 898.800781 817.894531 899.417969 820.867188 900.652344 C 822.46875 901.277344 823.917969 902.054688 825.203125 902.980469 C 826.503906 903.910156 827.773438 904.921875 829.023438 906.023438 C 830.121094 907.253906 831.136719 908.523438 832.066406 909.820312 C 832.992188 911.125 833.765625 912.578125 834.394531 914.175781 C 835.625 917.136719 836.242188 920.402344 836.242188 923.984375 L 836.242188 949.183594 C 836.242188 952.765625 835.625 956.039062 834.394531 958.992188 C 833.886719 960.105469 833.324219 961.160156 832.703125 962.152344 C 832.089844 963.136719 831.414062 964.058594 830.675781 964.917969 C 832.78125 967.503906 834.382812 970.101562 835.488281 972.695312 Z M 794.394531 949.183594 L 811.042969 949.183594 L 811.042969 923.984375 L 794.394531 923.984375 Z M 794.394531 949.183594 " fill-opacity="1" fill-rule="nonzero"/><path fill="#000000" d="M 917.511719 999.726562 C 917.511719 1003.308594 916.894531 1006.519531 915.660156 1009.355469 C 914.429688 1012.328125 912.636719 1014.984375 910.292969 1017.332031 C 908.074219 1019.546875 905.363281 1021.339844 902.15625 1022.699219 C 898.816406 1024.054688 895.539062 1024.730469 892.332031 1024.730469 L 875.105469 1024.730469 C 871.773438 1024.730469 868.566406 1024.054688 865.476562 1022.699219 C 862.265625 1021.339844 859.617188 1019.546875 857.523438 1017.332031 C 855.292969 1015.222656 853.503906 1012.566406 852.152344 1009.355469 C 850.785156 1006.28125 850.101562 1003.070312 850.101562 999.726562 L 850.101562 923.984375 C 850.101562 920.777344 850.785156 917.507812 852.152344 914.175781 C 853.503906 910.96875 855.292969 908.25 857.523438 906.023438 C 859.867188 903.675781 862.519531 901.886719 865.476562 900.652344 C 868.3125 899.417969 871.523438 898.800781 875.105469 898.800781 L 892.332031 898.800781 C 895.910156 898.800781 899.183594 899.417969 902.15625 900.652344 C 903.757812 901.277344 905.203125 902.054688 906.492188 902.980469 C 907.789062 903.910156 909.058594 904.921875 910.292969 906.023438 C 911.40625 907.253906 912.425781 908.523438 913.355469 909.820312 C 914.28125 911.125 915.050781 912.578125 915.660156 914.175781 C 916.894531 917.136719 917.511719 920.402344 917.511719 923.984375 Z M 875.304688 999.726562 L 892.332031 999.726562 L 892.332031 923.984375 L 875.304688 923.984375 Z M 875.304688 999.726562 " fill-opacity="1" fill-rule="nonzero"/><path fill="#000000" d="M 975.273438 923.984375 L 975.273438 1024.730469 L 950.089844 1024.730469 L 950.089844 923.984375 L 930.460938 923.984375 L 930.460938 898.800781 L 994.546875 898.800781 L 994.546875 923.984375 Z M 975.273438 923.984375 " fill-opacity="1" fill-rule="nonzero"/><path fill="#000000" d="M 1074.53125 923.804688 L 1074.53125 1024.730469 L 1049.328125 1024.730469 L 1049.328125 974.367188 L 1032.679688 974.367188 L 1032.679688 1024.730469 L 1007.480469 1024.730469 L 1007.480469 923.804688 C 1007.480469 920.476562 1008.160156 917.269531 1009.527344 914.175781 C 1010.882812 910.96875 1012.671875 908.320312 1014.898438 906.222656 C 1016.992188 903.992188 1019.644531 902.203125 1022.855469 900.851562 C 1026.183594 899.488281 1029.457031 898.800781 1032.679688 898.800781 L 1049.328125 898.800781 C 1052.550781 898.800781 1055.824219 899.488281 1059.15625 900.851562 C 1062.363281 902.082031 1065.082031 903.875 1067.3125 906.222656 C 1069.644531 908.558594 1071.433594 911.207031 1072.679688 914.175781 C 1073.914062 917.015625 1074.53125 920.222656 1074.53125 923.804688 Z M 1032.679688 949.183594 L 1049.328125 949.183594 L 1049.328125 923.804688 L 1032.679688 923.804688 Z M 1032.679688 949.183594 " fill-opacity="1" fill-rule="nonzero"/></svg>